<?xml version="1.0" encoding="UTF-8"?>
<svg id="Layer_2" data-name="Layer 2" xmlns="http://www.w3.org/2000/svg" viewBox="0 0 73.9 34.53">
  <defs>
    <style>
      .cls-1 {
        fill: #fff;
      }

      .cls-2 {
        fill: #ff6161;
      }
    </style>
  </defs>
  <g id="Layer_1-2" data-name="Layer 1">
    <path class="cls-2" d="M29.67,33.68c-.82,.37-1.69,.56-2.62,.56H0V.66H.44L6.19,7.15c-.05,.08-.07,.17-.07,.27V27.47c0,.16,.05,.29,.16,.4,.11,.11,.24,.16,.4,.16H24.67l5,5.65Z"/>
    <path class="cls-2" d="M67.37,22.51h-1.85s8.29,9.79,8.29,9.79v1.73h0l-11.51-11.51-.57-.57-5.64-5.64h11.01c.16,0,.3-.05,.42-.14s.19-.22,.19-.37V7.22c0-.16-.06-.29-.19-.4-.12-.11-.26-.16-.42-.16h-20.05c-.15,0-.29,.06-.39,.16,0,0-.02,.02-.02,.03L40.33,.55v-.05h27.05c1.18,0,2.27,.3,3.26,.89s1.79,1.37,2.38,2.35c.59,.98,.88,2.06,.88,3.24v9.05c0,1.18-.3,2.27-.88,3.27-.59,.99-1.39,1.78-2.38,2.35-.99,.58-2.08,.86-3.26,.86Z"/>
    <path class="cls-1" d="M71.86,34.53h-6.71l-9.63-11.5-10.98,.02v11.47h-6.15V1.05l6.3,6.3c-.1,.1-.14,.22-.14,.37v8.58c0,.16,.06,.28,.17,.37,.11,.09,.24,.14,.39,.14h9.04l5.64,5.64,.57,.57,11.51,11.51Z"/>
    <path class="cls-1" d="M35.57,6.48V27.09c0,1.19-.3,2.26-.89,3.24-.59,.98-1.39,1.76-2.38,2.35-.21,.13-.42,.24-.64,.33l-5-5.65h2.1c.15,0,.29-.05,.42-.16,.13-.11,.19-.24,.19-.4V6.76c0-.15-.06-.29-.19-.39-.13-.11-.27-.17-.42-.17H8.66c-.16,0-.29,.05-.4,.17-.04,.04-.07,.08-.09,.13L2.43,0H29.04c1.18,0,2.27,.29,3.26,.88s1.79,1.38,2.38,2.35c.59,.98,.89,2.06,.89,3.24Z"/>
  </g>
</svg>