<?xml version="1.0" encoding="UTF-8"?>
<svg id="Layer_2" data-name="Layer 2" xmlns="http://www.w3.org/2000/svg" viewBox="0 0 402.3 69.3">
  <defs>
    <style>
      .cls-1 {
        fill: #fff;
      }

      .cls-2 {
        fill: none;
      }

      .cls-3 {
        fill: #ff6161;
      }
    </style>
  </defs>
  <g id="Layer_1-2" data-name="Layer 1">
    <path class="cls-1" d="M0,61.2V10.55H40.8c1.78,0,3.42,.45,4.92,1.34,1.5,.89,2.7,2.07,3.59,3.55,.89,1.48,1.34,3.11,1.34,4.89v31.09c0,1.78-.45,3.41-1.34,4.89-.89,1.48-2.09,2.66-3.59,3.55-1.5,.89-3.14,1.34-4.92,1.34H0Zm10.06-9.36h30.32c.23,0,.45-.08,.63-.25,.19-.16,.28-.36,.28-.6V20.75c0-.23-.09-.43-.28-.6-.19-.16-.4-.25-.63-.25H10.06c-.23,0-.43,.08-.6,.25-.16,.16-.25,.36-.25,.6v30.25c0,.24,.08,.43,.25,.6,.16,.16,.36,.25,.6,.25Z"/>
    <path class="cls-1" d="M58.66,61.2V10.55h46.63v9.36h-37.28v11.25h29.96v9.43h-29.96v11.25h37.28v9.36H58.66Z"/>
    <path class="cls-1" d="M140.26,61.2L110.92,10.55h10.83l22.65,39.39,22.72-39.39h10.76l-29.33,50.64h-8.3Z"/>
    <path class="cls-3" d="M224.62,42.51h-2.79s12.5,14.77,12.5,14.77v2.61h0l-17.36-17.36-.86-.86-8.51-8.51h16.6c.24,0,.45-.07,.63-.21s.28-.33,.28-.56v-12.94c0-.24-.1-.43-.28-.6-.19-.16-.4-.24-.63-.24h-30.25c-.23,0-.43,.08-.59,.24-.01,.01-.03,.03-.03,.04l-9.5-9.5v-.08h40.8c1.78,0,3.42,.45,4.92,1.34s2.7,2.07,3.59,3.55c.89,1.48,1.33,3.11,1.33,4.89v13.65c0,1.78-.45,3.43-1.33,4.93-.89,1.5-2.09,2.68-3.59,3.55-1.5,.87-3.14,1.3-4.92,1.3Z"/>
    <path class="cls-3" d="M242,19.02c0-1.78,.45-3.41,1.34-4.89,.89-1.48,2.07-2.66,3.55-3.55,1.48-.89,3.11-1.34,4.89-1.34h31.02c1.78,0,3.42,.45,4.92,1.34,1.5,.89,2.7,2.07,3.59,3.55,.89,1.48,1.34,3.11,1.34,4.89V59.89h-9.35v-17.02h-32v17.02h-9.28V19.02Zm41.29,14.56v-14.14c0-.23-.09-.43-.28-.6-.19-.16-.4-.25-.63-.25h-30.25c-.24,0-.43,.08-.6,.25-.16,.16-.25,.36-.25,.6v14.14h32Z"/>
    <path class="cls-3" d="M300.8,59.89V9.24h46.64v9.36h-37.28v11.25h29.96v9.43h-29.96v20.61h-9.36Z"/>
    <path class="cls-3" d="M351.65,19.02c0-1.78,.45-3.41,1.34-4.89,.89-1.48,2.07-2.66,3.55-3.55,1.48-.89,3.11-1.34,4.89-1.34h31.02c1.78,0,3.42,.45,4.92,1.34,1.5,.89,2.7,2.07,3.59,3.55,.89,1.48,1.34,3.11,1.34,4.89V59.89h-9.35v-17.02h-32v17.02h-9.28V19.02Zm41.29,14.56v-14.14c0-.23-.09-.43-.28-.6-.19-.16-.4-.25-.63-.25h-30.25c-.24,0-.43,.08-.6,.25-.17,.16-.25,.36-.25,.6v14.14h32Z"/>
    <path class="cls-1" d="M230.39,61.64h-10.13l-14.53-17.34-16.56,.03v17.3h-9.28V11.14l9.5,9.5c-.14,.16-.21,.34-.21,.56v12.94c0,.24,.08,.42,.25,.56,.16,.14,.36,.21,.59,.21h13.64l8.51,8.51,.86,.86,17.36,17.36Z"/>
    <line class="cls-2" x1="183.83" y1="9.39" x2="174.44"/>
    <line class="cls-2" x1="207.59" y1="33.16" x2="193.32" y2="18.89"/>
    <line class="cls-2" x1="243.73" y1="69.3" x2="234.32" y2="59.89"/>
  </g>
</svg>