<svg xmlns="http://www.w3.org/2000/svg" xmlns:xlink="http://www.w3.org/1999/xlink" width="1200px" height="900px" viewBox="0 0 1200 900">
  <g id="5199dabd-982a-42b0-80fb-14e483fee666">
<rect style="stroke: rgb(193,193,193); stroke-width: 0; stroke-dasharray: none; stroke-linecap: butt; stroke-dashoffset: 0; stroke-linejoin: miter; stroke-miterlimit: 4; fill: rgb(255,255,255); fill-rule: nonzero; opacity: 1;" x="-600" y="-450" rx="0" ry="0" width="1200" height="900" transform="matrix(1 0 0 1 600 450)"/>
</g>
<g id="WPvVt-cJ6G_ejy0ZbnZeC">
<g style="">
		<g transform="matrix(-0.989091 0 0 1.371414 432.639696 166.674138) matrix(1 0 0 1 0 0)" id="Layer_1-2">
<linearGradient id="SVGID_48" gradientUnits="objectBoundingBox" gradientTransform="matrix(1 0 0 1 0 0)" x1="0" y1="0.4999916235278351" x2="0.9999942292599602" y2="0.4999916235278351">
<stop offset="0%" style="stop-color:rgb(166, 166, 166);stop-opacity: 1"/>
<stop offset="95.95375722543352%" style="stop-color:rgb(255, 255, 255);stop-opacity: 1"/>
</linearGradient>
<path style="stroke: rgb(193,193,193); stroke-width: 0; stroke-dasharray: none; stroke-linecap: butt; stroke-dashoffset: 0; stroke-linejoin: miter; stroke-miterlimit: 4; fill: url(#SVGID_48); fill-rule: nonzero; opacity: 1;" transform=" translate(-866.44, -298.455)" d="M 0.00 0.00 L 48.14 38.51 C 96.28 77.02 192.55 154.03 288.82 154.03 C 385.09 154.03 481.36 77.01 577.63 70.64 C 673.90 63.78 770.17 128.76 866.44 128.40 C 962.71 128.76 1058.98 63.78 1155.25 77.02 C 1251.52 90.26 1347.79 179.31 1444.06 186.17 C 1540.33 192.55 1636.60 115.53 1684.74 77.02 L 1732.88 38.51 L 1732.88 596.91 L 0.00 596.91 L 0.00 0.00 Z" stroke-linecap="round"/>
</g>
</g>
</g>
<g id="mxB6w9haZtI-m9KTlRAfn">
<g style="">
		<g transform="matrix(0.964588 0 0 0.964588 599.999694 657.663347) matrix(1 0 0 1 0 0)" id="Layer_1-2">
<linearGradient id="SVGID_51" gradientUnits="objectBoundingBox" gradientTransform="matrix(1 0 0 1 0 0)" x1="0" y1="0.4999916235278351" x2="0.9999942292599602" y2="0.4999916235278351">
<stop offset="0%" style="stop-color:rgb(166, 166, 166);stop-opacity: 1"/>
<stop offset="95.95375722543352%" style="stop-color:rgb(255, 255, 255);stop-opacity: 1"/>
</linearGradient>
<path style="stroke: rgb(193,193,193); stroke-width: 0; stroke-dasharray: none; stroke-linecap: butt; stroke-dashoffset: 0; stroke-linejoin: miter; stroke-miterlimit: 4; fill: url(#SVGID_51); fill-rule: nonzero; opacity: 1;" transform=" translate(-866.44, -298.455)" d="M 0.00 0.00 L 48.14 38.51 C 96.28 77.02 192.55 154.03 288.82 154.03 C 385.09 154.03 481.36 77.01 577.63 70.64 C 673.90 63.78 770.17 128.76 866.44 128.40 C 962.71 128.76 1058.98 63.78 1155.25 77.02 C 1251.52 90.26 1347.79 179.31 1444.06 186.17 C 1540.33 192.55 1636.60 115.53 1684.74 77.02 L 1732.88 38.51 L 1732.88 596.91 L 0.00 596.91 L 0.00 0.00 Z" stroke-linecap="round"/>
</g>
</g>
</g>
<g id="3XfPkvLtbYoPYnVh2-srw">
<path style="stroke: rgb(114,114,114); stroke-width: 0; stroke-dasharray: none; stroke-linecap: butt; stroke-dashoffset: 0; stroke-linejoin: round; stroke-miterlimit: 4; fill: rgb(114,114,114); fill-rule: nonzero; opacity: 1;" vector-effect="non-scaling-stroke" transform="matrix(1 0 0 1 0 0)  translate(0, 0)" d="" stroke-linecap="round"/>
</g>
<g id="ob5Y-khz2z5fCIQAv3i_b">
<g>
		<g id="J-t4qdgibDv5-8WkrGns0">
<path style="stroke: rgb(193,193,193); stroke-width: 0; stroke-dasharray: none; stroke-linecap: butt; stroke-dashoffset: 0; stroke-linejoin: miter; stroke-miterlimit: 4; fill: rgb(255,97,97); fill-rule: nonzero; opacity: 1;" d="M474.21616,451.7192v-25.84c0,-6.46 5.27,-11.73 11.73,-11.73h38.16v11.13h-38.16c-0.34,0 -0.6,0.26 -0.6,0.6v25.84c0,0.34 0.26,0.59 0.6,0.59h38.33v11.14h-38.33c-6.46,0 -11.73,-5.27 -11.73,-11.73zM581.48616,425.8792v25.84c0,6.46 -5.27,11.73 -11.73,11.73h-26.61c-6.46,0 -11.73,-5.27 -11.73,-11.73v-25.84c0,-6.46 5.27,-11.73 11.73,-11.73h26.61c6.46,0 11.73,5.27 11.73,11.73zM543.14616,452.3092h26.61c0.34,0 0.59,-0.25 0.59,-0.59v-25.84c0,-0.34 -0.25,-0.6 -0.59,-0.6h-26.61c-0.34,0 -0.59,0.26 -0.59,0.6v25.84c0,0.34 0.25,0.59 0.59,0.59zM638.34616,425.8792v37.57h-11.13v-37.57c0,-0.34 -0.26,-0.6 -0.6,-0.6h-26.6c-0.34,0 -0.6,0.26 -0.6,0.6v37.57h-11.13v-49.3h38.33c6.46,0 11.73,5.27 11.73,11.73zM659.17616,452.3092h18.61v11.14h-18.61c-6.55,0 -11.73,-5.27 -11.73,-11.73v-53.72h11.13v16.15h19.21v11.13h-19.21v26.44c0,0.34 0.26,0.59 0.6,0.59zM736.52616,425.8792v37.57h-38.34c-6.46,0 -11.73,-5.27 -11.73,-11.73v-18.53h38.93v-7.31c0,-0.34 -0.25,-0.6 -0.59,-0.6h-38.34v-11.13h38.34c6.46,0 11.73,5.27 11.73,11.73zM698.18616,452.3092h27.2v-7.9h-27.79v7.31c0,0.34 0.25,0.59 0.59,0.59zM743.32616,451.7192v-25.84c0,-6.46 5.27,-11.73 11.73,-11.73h38.16v11.13h-38.16c-0.34,0 -0.6,0.26 -0.6,0.6v25.84c0,0.34 0.26,0.59 0.6,0.59h38.33v11.14h-38.33c-6.46,0 -11.73,-5.27 -11.73,-11.73zM813.10616,452.3092h18.62v11.14h-18.62c-6.54,0 -11.73,-5.27 -11.73,-11.73v-53.72h11.14v16.15h19.21v11.13h-19.21v26.44c0,0.34 0.25,0.59 0.59,0.59zM937.88616,425.8792v37.57h-11.05v-37.57c0,-0.34 -0.25,-0.6 -0.68,-0.6h-18.53c-0.34,0 -0.51,0.26 -0.51,0.6v37.57h-11.22v-37.57c0,-0.34 -0.25,-0.6 -0.51,-0.6h-18.61c-0.34,0 -0.6,0.26 -0.6,0.6v37.57h-11.13v-49.3h61.11c6.46,0 11.73,5.27 11.73,11.73zM999.08616,425.8792v18.53h-38.93v7.31c0,0.34 0.26,0.59 0.6,0.59h38.33v11.14h-38.33c-6.46,0 -11.73,-5.27 -11.73,-11.73v-25.84c0,-6.46 5.27,-11.73 11.73,-11.73h26.6c6.46,0 11.73,5.27 11.73,11.73zM987.95616,433.1892v-7.31c0,-0.34 -0.26,-0.6 -0.6,-0.6h-26.6c-0.34,0 -0.6,0.26 -0.6,0.6v7.31z" stroke-linecap="round"/>
</g>
</g>
</g>
<g id="FNI8Pimntq2otQr9z1T8t">
<path style="stroke: rgb(193,193,193); stroke-width: 0; stroke-dasharray: none; stroke-linecap: butt; stroke-dashoffset: 0; stroke-linejoin: miter; stroke-miterlimit: 4; fill: rgb(114,114,114); fill-rule: nonzero; opacity: 1;" transform="matrix(1 0 0 1 0 0)  translate(0, 0)" d="" stroke-linecap="round"/>
</g>
<g id="13kjF8xkw8DJRKZy8G7th">
<path style="stroke: rgb(193,193,193); stroke-width: 0; stroke-dasharray: none; stroke-linecap: butt; stroke-dashoffset: 0; stroke-linejoin: miter; stroke-miterlimit: 4; fill: rgb(193,193,193); fill-rule: nonzero; opacity: 1;" transform="matrix(1 0 0 1 0 0)  translate(0, 0)" d="" stroke-linecap="round"/>
</g>
<g id="izaRW_lBCwjocMk_v5d_r">
<g style="">
		<g id="Pfad_13309">
<path style="stroke: rgb(193,193,193); stroke-width: 0; stroke-dasharray: none; stroke-linecap: butt; stroke-dashoffset: 0; stroke-linejoin: miter; stroke-miterlimit: 4; fill: rgb(255,97,97); fill-rule: nonzero; opacity: 1;" d="M303.91154,382.4592c-59.23657,0 -107.25486,33.10407 -107.25486,73.91889c0,30.23428 26.32575,56.22667 64.03405,67.68651c-4.60423,11.99129 -11.45984,23.33035 -16.76944,28.02154c12.56893,-6.63868 24.39917,-14.59029 35.29265,-23.72168c8.16625,1.31862 16.42558,1.97619 24.69761,1.96634c59.23657,0 107.25486,-33.10407 107.25486,-73.91889c0,-40.81482 -48.01346,-73.95271 -107.25486,-73.95271z" stroke-linecap="round"/>
</g>
</g>
</g>
<g id="TI1sxF2V0HBqurhTM4GCj">
<g style="opacity: 0.8;">
		<g transform="matrix(-0.234798 0.406683 -0.406683 -0.234798 338.152755 408.373281) matrix(1 0 0 1 0 0)" id="Layer_1-2">
<linearGradient id="SVGID_54" gradientUnits="objectBoundingBox" gradientTransform="matrix(1 0 0 1 0.000009 -0.000005)" x1="0" y1="0.49999106364619184" x2="0.9999996212387372" y2="0.49999106364619184">
<stop offset="0%" style="stop-color:rgb(255, 97, 97);stop-opacity: 1"/>
<stop offset="100%" style="stop-color:rgb(244, 158, 158);stop-opacity: 1"/>
</linearGradient>
<path style="stroke: rgb(193,193,193); stroke-width: 0; stroke-dasharray: none; stroke-linecap: butt; stroke-dashoffset: 0; stroke-linejoin: miter; stroke-miterlimit: 4; fill: url(#SVGID_54); fill-rule: nonzero; opacity: 1;" transform=" translate(-180.441759, -200.215623)" d="M 340.00 154.88 C 370.82 240.24 370.48 344.90 319.00 383.18 C 267.85 421.12 165.56 392.33 95.11 337.11 C 24.31 281.90 -14.98 199.93 5.34 128.80 C 25.67 57.67 105.60 -2.62 176.40 0.09 C 247.53 3.14 309.18 69.53 340.00 154.88 Z" stroke-linecap="round"/>
</g>
</g>
</g>

  </svg>